<?xml version="1.0" encoding="UTF-8"?> <svg xmlns="http://www.w3.org/2000/svg" viewBox="0 0 121.051 46.522"><defs><style> .cls-1 { fill: #fff; } </style></defs><g id="abta" transform="translate(47.329 26.914)"><g id="Layer_1-2" data-name="Layer 1-2" transform="translate(-76.83 -40.968)"><path id="Path_728" data-name="Path 728" class="cls-1" d="M35.991,1c-.521,0-1.033.026-1.541.074V3.735h0V32.86h0V33.9a15.072,15.072,0,0,0,1.541.091A16.494,16.494,0,0,0,35.991,1m6.025,17.97a22.292,22.292,0,0,1-.408,3.077H37.749V18.97Zm-4.289-3.038V12.837h3.841A22.194,22.194,0,0,1,42,15.91Zm7.509,3.082H49.1a13.178,13.178,0,0,1-.725,3.077H44.841a22.346,22.346,0,0,0,.434-3.077m0-3.082a22.2,22.2,0,0,0-.434-3.073h3.551a13.083,13.083,0,0,1,.721,3.073Zm1.458-6.155H43.952a20.214,20.214,0,0,0-2.1-4.132,13.252,13.252,0,0,1,4.879,4.132m-6.012,0H37.766V4.39a20.054,20.054,0,0,1,2.956,5.365M37.766,30.59V25.143h3a19.967,19.967,0,0,1-3,5.443Zm4.115-1.259a20.11,20.11,0,0,0,2.105-4.184h2.8a13.269,13.269,0,0,1-4.9,4.184" transform="translate(10.004 13.053)"></path><path id="Path_729" data-name="Path 729" class="cls-1" d="M149.035,36.831H140.38V9.55H148.9c5.508,0,8.03,3.768,8.03,7.08a6.1,6.1,0,0,1-3.268,5.669v.082a5.984,5.984,0,0,1,5.044,6.211c0,3.907-2.813,8.247-9.675,8.247M148.2,13.8h-2.817v7.1h2.643a3.638,3.638,0,0,0,3.907-3.724c0-1.94-1.328-3.39-3.724-3.39m.946,11.286h-3.763v7.544h3.186c3.355,0,5-1.5,5-3.972,0-2.114-1.615-3.559-4.427-3.559" transform="translate(-49.946 8.215)"></path><path id="Path_730" data-name="Path 730" class="cls-1" d="M202.53,13.734h-7.258V36.822H190.22V13.734h-7.9V9.55h21.842Z" transform="translate(-73.681 8.215)"></path><path id="Path_731" data-name="Path 731" class="cls-1" d="M96.8,36.825l-2.7-6.836H84.357l-2.513,6.836H76.83L87.4,9.54h3.75l10.934,27.285Zm-6.437-17.2A27.244,27.244,0,0,1,89.3,16.251h-.043a21.542,21.542,0,0,1-1,3.312L85.9,25.9H92.53Z" transform="translate(-13.98 8.22)"></path><path id="Path_732" data-name="Path 732" class="cls-1" d="M240.717,36.836,238.026,30H228.29l-2.522,6.836H220.75L231.3,9.56h3.755l10.93,27.276Zm-6.454-17.2a27.247,27.247,0,0,1-1.033-3.373h-.043a21.515,21.515,0,0,1-.99,3.312l-2.366,6.35h6.654Z" transform="translate(-95.43 8.209)"></path><path id="Path_733" data-name="Path 733" class="cls-1" d="M18.937,19.9v-1.25L11.05,10.76A16.117,16.117,0,0,0,9.8,12.006l7.9,7.9Z" transform="translate(23.955 7.53)"></path><path id="Path_734" data-name="Path 734" class="cls-1" d="M18.937,45.934v1.25L11.05,55.076a16.986,16.986,0,0,1-1.25-1.25l7.9-7.9Z" transform="translate(23.955 -12.374)"></path><path id="Path_735" data-name="Path 735" class="cls-1" d="M13.391,35.4H.074C.026,35.9,0,36.416,0,36.937s.026,1.029.074,1.532H13.382Z" transform="translate(29.501 -6.415)"></path><path id="Path_736" data-name="Path 736" class="cls-1" d="M3.838,16A16.3,16.3,0,0,0,.8,22.849h9.9Z" transform="translate(29.048 4.564)"></path><path id="Path_737" data-name="Path 737" class="cls-1" d="M21.925,11.638V1.75A16.334,16.334,0,0,0,15.08,4.788Z" transform="translate(20.966 12.629)"></path><path id="Path_738" data-name="Path 738" class="cls-1" d="M15.08,60.075a16.334,16.334,0,0,0,6.845,3.038V53.23Z" transform="translate(20.966 -16.505)"></path><path id="Path_739" data-name="Path 739" class="cls-1" d="M10.677,45.94H.78a16.3,16.3,0,0,0,3.038,6.849Z" transform="translate(29.059 -12.38)"></path><path id="Path_740" data-name="Path 740" class="cls-1" d="M13.08,90.5H10.91v6.78h-1.5V90.5H7.09V89.27h6.346Z" transform="translate(25.488 -36.902)"></path><path id="Path_741" data-name="Path 741" class="cls-1" d="M24.642,95.654a1.35,1.35,0,0,0-.681-.182,1.675,1.675,0,0,0-1.107.512v4.071H21.4V94.3h1.228l.156.608a2.322,2.322,0,0,1,1.593-.742,1.432,1.432,0,0,1,.8.243Z" transform="translate(17.39 -39.675)"></path><path id="Path_742" data-name="Path 742" class="cls-1" d="M34.174,100.065l-.243-.512a2.37,2.37,0,0,1-1.667.634A1.793,1.793,0,0,1,30.38,98.5v-.161c0-1.189.938-1.836,2.4-1.884l1.02-.035V96.28c0-.694-.486-.972-1.094-.972a2.8,2.8,0,0,0-1.484.434l-.473-.912A3.789,3.789,0,0,1,33,94.2c1.424,0,2.283.582,2.283,2.092v2.274a5.76,5.76,0,0,0,.109,1.519Zm-.365-2.639-.825.026c-.79.026-1.142.291-1.142.777s.33.8.938.8a1.5,1.5,0,0,0,1.033-.365Z" transform="translate(12.308 -39.688)"></path><path id="Path_743" data-name="Path 743" class="cls-1" d="M46.336,100.266H45.277L42.92,94.48h1.493l1.432,3.907h.026L47.33,94.48h1.411Z" transform="translate(5.211 -39.85)"></path><path id="Path_744" data-name="Path 744" class="cls-1" d="M58.449,97.563a1.519,1.519,0,0,0,1.6,1.445h0a3,3,0,0,0,1.493-.4l.352.938a3.7,3.7,0,0,1-2.075.621,2.743,2.743,0,0,1-2.856-3,2.714,2.714,0,0,1,2.6-3c1.554,0,2.578,1.181,2.578,2.965v.434Zm1.094-2.3a1.185,1.185,0,0,0-1.129,1.246H60.65a1.17,1.17,0,0,0-1.107-1.263Z" transform="translate(-2.735 -39.669)"></path><path id="Path_745" data-name="Path 745" class="cls-1" d="M72.8,96.625a1.146,1.146,0,0,1-1.3-1.263V87.9h1.458v6.819c0,.434.087.595.391.595a1.836,1.836,0,0,0,.434-.061l.182,1.081A2.279,2.279,0,0,1,72.8,96.625Z" transform="translate(-10.964 -36.127)"></path><path id="Path_746" data-name="Path 746" class="cls-1" d="M91.115,100.266H90.008l-1.3-3.907H88.68l-1.3,3.907H86.267l-2.1-5.786h1.484l1.228,3.907h.026l1.263-3.907H89.3l1.276,3.907h.026l1.2-3.907h1.4Z" transform="translate(-18.134 -39.85)"></path><path id="Path_747" data-name="Path 747" class="cls-1" d="M107.695,90.138a.868.868,0,1,1,.912-.868A.9.9,0,0,1,107.695,90.138Zm-.729,6.637V91.041h1.458v5.747Z" transform="translate(-30.981 -36.411)"></path><path id="Path_748" data-name="Path 748" class="cls-1" d="M115.274,98.039a1.247,1.247,0,0,1-1.424-1.35V93.265h-1.02v-1.1h1.016V90.834L115.3,90.4v1.762h1.788l-.434,1.094H115.3v2.891c0,.434.169.655.547.655a1.9,1.9,0,0,0,.959-.317l.391.925A3.533,3.533,0,0,1,115.274,98.039Z" transform="translate(-34.354 -37.541)"></path><path id="Path_749" data-name="Path 749" class="cls-1" d="M128.5,96.5V93.152c0-.642-.1-1.25-.868-1.25a2.3,2.3,0,0,0-1.4.608v4H124.78V87.9h1.471v3.472a2.991,2.991,0,0,1,1.91-.755c.868,0,1.836.434,1.836,2.114V96.5Z" transform="translate(-41.117 -36.127)"></path><path id="Path_750" data-name="Path 750" class="cls-1" d="M148.677,100.17a2.731,2.731,0,0,1-2.83-2.965,2.926,2.926,0,0,1,2.8-3.038h.178a3.1,3.1,0,0,1,1.641.4l-.026,1.189a2.262,2.262,0,0,0-1.445-.473,1.736,1.736,0,0,0-1.71,1.762v.087a1.666,1.666,0,0,0,1.675,1.858,2.6,2.6,0,0,0,1.363-.382l.365.959A3.811,3.811,0,0,1,148.677,100.17Z" transform="translate(-53.038 -39.672)"></path><path id="Path_751" data-name="Path 751" class="cls-1" d="M163.3,99.346a2.852,2.852,0,0,1-4.927-2.14,3.125,3.125,0,0,1,.838-2.222,2.8,2.8,0,0,1,2.04-.816,2.86,2.86,0,0,1,2.114.825,3.125,3.125,0,0,1,.764,2.17,3.038,3.038,0,0,1-.829,2.183Zm-2.092-4.024c-.925,0-1.372.777-1.372,1.849s.521,1.871,1.411,1.871,1.372-.79,1.372-1.871S162.109,95.322,161.206,95.322Z" transform="translate(-60.124 -39.673)"></path><path id="Path_752" data-name="Path 752" class="cls-1" d="M177.929,100.052V96.675c0-.595-.109-1.25-.868-1.25a2.548,2.548,0,0,0-1.458.608v4.024H174.17V94.3H175.4l.156.621a3.277,3.277,0,0,1,2.014-.755c.868,0,1.81.521,1.81,2.066v3.815Z" transform="translate(-69.069 -39.675)"></path><path id="Path_753" data-name="Path 753" class="cls-1" d="M192.087,89.24a1.91,1.91,0,0,0-.729-.156c-.46,0-.681.278-.681.777v.912H192.2l-.378,1.12h-1.142v4.631h-1.458V91.866h-.838v-1.12h.838v-.8a1.876,1.876,0,0,1,2.031-2.053,2.748,2.748,0,0,1,1.129.256Z" transform="translate(-77.111 -36.121)"></path><path id="Path_754" data-name="Path 754" class="cls-1" d="M200.095,90.138a.868.868,0,1,1,.912-.868A.9.9,0,0,1,200.095,90.138Zm-.729,6.637V91.041h1.458v5.747Z" transform="translate(-83.274 -36.411)"></path><path id="Path_755" data-name="Path 755" class="cls-1" d="M208.925,96.625a2.852,2.852,0,0,1-3.125-2.952,2.988,2.988,0,0,1,3.186-3.038,4.121,4.121,0,0,1,.729.048V87.9h1.471v8.247A4.844,4.844,0,0,1,208.925,96.625Zm.79-4.775a2.41,2.41,0,0,0-.681-.087,1.7,1.7,0,0,0-1.78,1.61v.213a1.736,1.736,0,0,0,1.645,1.823h.152a2.565,2.565,0,0,0,.655-.087Z" transform="translate(-86.969 -36.127)"></path><path id="Path_756" data-name="Path 756" class="cls-1" d="M222.036,97.574a1.519,1.519,0,0,0,1.6,1.445h0a2.986,2.986,0,0,0,1.489-.395l.352.938a3.685,3.685,0,0,1-2.088.625,2.743,2.743,0,0,1-2.856-3,2.714,2.714,0,0,1,2.6-3c1.554,0,2.578,1.181,2.578,2.965v.434Zm1.094-2.3A1.185,1.185,0,0,0,222,96.524h2.235a1.17,1.17,0,0,0-1.107-1.263Z" transform="translate(-95.306 -39.681)"></path><path id="Path_757" data-name="Path 757" class="cls-1" d="M238.8,100.052V96.675c0-.595-.109-1.25-.868-1.25a2.548,2.548,0,0,0-1.458.608v4.024H235V94.3h1.241l.156.621a3.277,3.277,0,0,1,2.018-.755c.868,0,1.81.521,1.81,2.066v3.815Z" transform="translate(-103.495 -39.675)"></path><path id="Path_758" data-name="Path 758" class="cls-1" d="M252.417,100.17a2.731,2.731,0,0,1-2.83-2.965,2.926,2.926,0,0,1,2.8-3.038h.178a3.1,3.1,0,0,1,1.641.4l-.026,1.189a2.262,2.262,0,0,0-1.445-.473,1.736,1.736,0,0,0-1.693,1.78v.069a1.666,1.666,0,0,0,1.675,1.858,2.6,2.6,0,0,0,1.363-.4l.365.959A3.8,3.8,0,0,1,252.417,100.17Z" transform="translate(-111.749 -39.672)"></path><path id="Path_759" data-name="Path 759" class="cls-1" d="M263.526,97.58a1.519,1.519,0,0,0,1.6,1.445h0a3,3,0,0,0,1.493-.4l.352.938a3.7,3.7,0,0,1-2.092.634,2.743,2.743,0,0,1-2.856-3,2.714,2.714,0,0,1,2.6-3c1.554,0,2.578,1.181,2.578,2.965v.434Zm1.09-2.3a1.185,1.185,0,0,0-1.129,1.246h2.235a1.173,1.173,0,0,0-1.107-1.263Z" transform="translate(-118.786 -39.686)"></path></g></g></svg> 