<?xml version="1.0" encoding="UTF-8"?> <svg xmlns="http://www.w3.org/2000/svg" viewBox="0 0 98.083 35.601"><defs><style> .cls-1 { fill: #fff; } </style></defs><g id="Layer_1" data-name="Layer 1" transform="translate(0)"><path id="Path_705" data-name="Path 705" class="cls-1" d="M0,39.57c.116-.1.307-.166.353-.286.106-.353.025-.927.247-1.086a2.666,2.666,0,0,1,1.411-.377c2.116-.035,4.232,0,6.348,0h5.812c.543,0,.705.159.674.688-.071,1.647.5,2.229-2.049,2.176-1.178-.025-2.338.49-3.555.353-.116,0-.335.229-.384.388a4.584,4.584,0,0,0-.039.681A7.339,7.339,0,0,1,8.6,44.3c-.222.508.2,1.266.208,1.915q.042,4.665,0,9.334c0,.49.229,1.058-.3,1.463a.324.324,0,0,0-.039.317c.705.705.028,1.206-.272,1.717-.448.758-1.351.705-2.056.97a3.761,3.761,0,0,1-1.058.021c-.638.021-.483-.152-.19-.525s-.839-.822-.071-1.315a1.42,1.42,0,0,1,.236-1.742c.353-.469.187-1.322.212-2,.028-.762,0-1.527,0-2.289V45.819a1.957,1.957,0,0,1,0-.353,3.376,3.376,0,0,0-.353-1.791c.589-.5.3-1.185.353-1.791a.748.748,0,0,0-.818-.871c-.836.06-1.672-.226-2.532.261A1.827,1.827,0,0,1,0,40.981v-.353l.353-.268L0,39.923Z" transform="translate(0 -24.474)"></path><path id="Path_706" data-name="Path 706" class="cls-1" d="M53.781,53.114v2.821c0,.607-.233.991-.86,1.033a3.135,3.135,0,0,0-1.107.307,2.26,2.26,0,0,1-1.7,0c-.247-.123-.24-.949-.194-1.442.138-1.541-.395-3.124.3-4.623-.733-.733.268-1.411.081-2.169a10.825,10.825,0,0,1-.042-2.469V38.815a.818.818,0,0,1,.825-.885c.465-.053.942.021,1.411-.018a9.9,9.9,0,0,0,2.7-.272,2.469,2.469,0,0,1,2.327.229c.353.25,1.023.035,1.548.049,2.179.063,3.879.815,4.683,3.047a2.623,2.623,0,0,1-.1,2.553,5.15,5.15,0,0,1-3.05,2.518c-.257.063-.483.289-.737.331-.508.081-.543.279-.3.684a10.083,10.083,0,0,0,1.411,2.373c.645.592.427,1.382,1.058,1.911a5.84,5.84,0,0,1,.92,1.714c.3.6.642,1.259.966,1.887.148.293.141.444-.222.642-1.1.592-2.257.233-3.385.314-.049,0-.081-.317-.187-.423-1.224-1.252-1.58-2.994-2.461-4.426a14.786,14.786,0,0,0-2.208-3.484,1.643,1.643,0,0,0-.705-.43c-.233-.056-.592-.145-.628.353-.141,1.887-.3,3.77-.448,5.642Zm2.5-9.151v-.039H58.4a2.47,2.47,0,0,0,1.731-1.449c.19-.889-.49-1.664-1.615-1.707-1.411-.053-2.821,0-4.232-.018-.353,0-.536.088-.515.48.039.868.056,1.739.085,2.606Z" transform="translate(-32.27 -24.244)"></path><path id="Path_707" data-name="Path 707" class="cls-1" d="M112.4,55.26c-.825.208-1.329-.19-1.594-1.026-.1-.307-.416-.557-.469-.86-.123-.705-.582-.769-1.181-.956a12,12,0,0,0-3.921-.293,13.4,13.4,0,0,0-2.32.353.67.67,0,0,0-.388.4c-1.185,3.59-.614,2.606-4.147,2.747-.508.021-.592-.254-.314-.652.063-.1.212-.176.208-.261-.039-1.841,1.058-3.325,1.538-5.011.042-.152.222-.286.226-.43a6.345,6.345,0,0,1,1.033-2.751c.829-1.643,1.456-3.392,2.148-5.1a20.844,20.844,0,0,1,1.009-2.585c.219-.391.353-.483.705-.483a4.862,4.862,0,0,1,1.573.039c.536.187.927-.6,1.337-.138a3.078,3.078,0,0,1,.515,1.185,55.324,55.324,0,0,0,3.089,7.712,24.657,24.657,0,0,1,1.8,4.193c.1.406.494.73.705,1.111.353.578.9,1.347.483,1.841A2.045,2.045,0,0,1,112.4,55.26Zm-6.386-5.621h2.116c.532,0,.324-.19.134-.469s-.24-.73-.448-1.033a29.017,29.017,0,0,1-1.548-3.392,1.612,1.612,0,0,0-.353-.377c-.063.138-.12.279-.19.416a15.043,15.043,0,0,0-1.545,3.392,9.481,9.481,0,0,1-.536,1.326c.508.046,1.012.1,1.52.138C105.425,49.653,105.721,49.638,106.01,49.638Z" transform="translate(-63.379 -24.668)"></path><path id="Path_708" data-name="Path 708" class="cls-1" d="M202.435,38.973c.762,0,1.527.028,2.289,0,.607-.032,1.231.19,1.82-.31a1.27,1.27,0,0,1,1.181,0,3.492,3.492,0,0,0,1.813.324c1.058.074,1.347.4,1.351,1.411v.529c0,.956-.705,1.411-1.689,1.114-.2-.063-.4-.236-.6-.236-2-.018-3.992,0-5.995,0a.8.8,0,0,0-.875.815c-.039,1.467-.053,2.938.021,4.4a1.1,1.1,0,0,0,.744.733,17.467,17.467,0,0,0,2.116.042,3.315,3.315,0,0,1,.984.173,1.375,1.375,0,0,1,.779,1.689c-.261.945-.261.945-1.128.952h-3.34c-.06.621-.12,1.241-.176,1.862a2.353,2.353,0,0,1,0,.353c-.229,1.266-.226,1.234.97,1.322.705.053,1.411.25,2.144.331a4.732,4.732,0,0,1,2.162.328c.353.2.924,0,1.386.049a3.879,3.879,0,0,1,1.086.353c.353.159,1.058.166.413.882-.127.138.042.652.2.917.2.353.085.518-.141.741s-.406.4-.733.183a1.058,1.058,0,0,0-.592-.247,14.889,14.889,0,0,1-4.073-.427c-1.841-.24-3.7-.353-5.526-.645a1.666,1.666,0,0,1-1.16-1.111,3.575,3.575,0,0,1,.032-1.735,5.069,5.069,0,0,0,.3-2.518c.025-3.463,0-6.926.018-10.389a2.138,2.138,0,0,1,.236-1.319c.243-.381.353-.589.829-.571C200.32,38.994,201.378,38.973,202.435,38.973Z" transform="translate(-128.028 -24.934)"></path><path id="Path_709" data-name="Path 709" class="cls-1" d="M146.435,37.421c.832-.169,1.171.353,1.411.942a46.415,46.415,0,0,1,2.222,6.295,20.783,20.783,0,0,0,1.411,3.985,1.1,1.1,0,0,0,.674.511c.451.113.279-.374.427-.568a9.575,9.575,0,0,0,1.506-3.251c.272-.949.353-1.932.705-2.878a38.679,38.679,0,0,0,1.622-4.26c.028-.12.208-.3.314-.293.97.025,1.841-.564,2.853-.388.705.123.875.272.628.97-.145.409-.353.8-.49,1.206q-1.058,2.814-2.116,5.642c-.264.705-.529,1.428-.744,2.158-.353,1.259-1.217,2.3-1.538,3.59a6.669,6.669,0,0,1-1.03,2.564c-.06.078,0,.268-.053.324-.469.413-.91,1.037-1.449,1.143a5.77,5.77,0,0,1-2.116-.307c-.106-.025-.176-.236-.257-.353a25.153,25.153,0,0,1-2.444-5.5c-.215-.631-.744-1.009-.868-1.763-.31-1.929-1.206-3.72-1.657-5.642a16.011,16.011,0,0,0-1.273-2.987c-.208-.444-.13-.589.353-.663C145.155,37.773,145.8,37.576,146.435,37.421Z" transform="translate(-93.26 -24.204)"></path><path id="Path_710" data-name="Path 710" class="cls-1" d="M246.939,44.565c0,1.058.032,2.116,0,3.174-.025.6.226,1.234-.307,1.82a1.4,1.4,0,0,0,0,1.192,4.5,4.5,0,0,1,.032,3.431,2.192,2.192,0,0,0,.416,1.71,1.95,1.95,0,0,0,1.347.473,17.653,17.653,0,0,1,4.108.705,4.905,4.905,0,0,0,1.227,0c1.6.042,1.961.55,1.506,2.116a1.492,1.492,0,0,0-.127.6c.134.857.145.889-.624.815a14.928,14.928,0,0,1-1.615-.353c-.487-.1-.984.141-1.5-.25-.3-.229-.9-.042-1.351-.113s-.836-.254-1.262-.353a15.1,15.1,0,0,0-4.285-.733,1.1,1.1,0,0,1-1.058-1.146,12.632,12.632,0,0,0-.293-3.569c-.208-.6.272-1.411.272-2.116s-.473-1.513-.275-2.116a15.642,15.642,0,0,0,.289-4.447c.056-1.481,0-2.93,0-4.4,0-.233.088-.582-.028-.681-.681-.568-.127-.864.2-1.245a.889.889,0,0,1,1.217-.219,3.526,3.526,0,0,0,1.135.219c.755.088.987.3,1,1.076C246.939,41.635,246.939,43.1,246.939,44.565Z" transform="translate(-157.367 -25.06)"></path><path id="Path_711" data-name="Path 711" class="cls-1" d="M203,11.368V10.074c.025-.42.607-1.3.959-1.284.836.035,1.71-.257,2.5.321.441.324.822.942.6,1.411a1.473,1.473,0,0,0,.353,1.83,1.821,1.821,0,0,1,.183,2.43c-.166.222-.286.564-.5.649a6.379,6.379,0,0,1-3.371.748c-.13-.021-.247-.169-.353-.272-.028-.028,0-.113,0-.173,0-.818.056-1.643-.018-2.469A17.136,17.136,0,0,0,203,11.368Zm1.411,2.31v.547c-.025.328.025.568.441.543.289-.018.582.021.867,0,.61-.067.79-.427.825-1.234.028-.726-.465-.487-.815-.518-.229-.021-.469.021-.705,0C204.442,12.909,204.337,13.223,204.411,13.678Zm.254-2.088c.924,0,1.146-.282,1.171-1.227,0-.511-.222-.554-.621-.543-.924.025-1.146.286-1.171,1.234C204.03,11.566,204.262,11.636,204.664,11.59Z" transform="translate(-131.413 -5.662)"></path><path id="Path_712" data-name="Path 712" class="cls-1" d="M49.955,14.234c.067-.575-.138-1.192.321-1.763a1.217,1.217,0,0,0,0-1.174c-.733-.8.409-1.471.042-2.2-.021-.042.134-.247.183-.24.9.141,1.813-.254,2.715.226,1.411.748,1.622,1.978.441,2.938-.836,0-.582.571-.444.945.321.86.73,1.686,1.1,2.532a2.094,2.094,0,0,1,.085.353,3.735,3.735,0,0,1-.864,0,.726.726,0,0,1-.4-.381c-.441-.927-.85-1.873-1.294-2.8-.053-.116-.24-.169-.353-.254a1.058,1.058,0,0,0-.109.307c0,.878-.039,1.763,0,2.634.028.55-.272.547-.649.525s-.885.145-.779-.557a2.347,2.347,0,0,0,0-.353Zm2.289-2.941c.3-.116.878.31.885-.427s-.324-.963-1.234-1c-.716-.028-.48.434-.529.786-.127.818.448.614.878.638Z" transform="translate(-32.322 -5.718)"></path><path id="Path_713" data-name="Path 713" class="cls-1" d="M150.978,12.29V9.469a1.27,1.27,0,0,1,.18-.589,1.643,1.643,0,0,1,.931.25,4.676,4.676,0,0,1,.652,1.136c.331.624.659,1.252,1,1.876.049.092.162.152.243.226.056-.092.148-.183.159-.282.127-.949.233-1.9.37-2.849.018-.138.138-.353.243-.353a.705.705,0,0,1,.448.159,1.227,1.227,0,0,1,.307,1.587,6.189,6.189,0,0,0-.293,2.7,21.1,21.1,0,0,0,0,2.116c0,.391-.159.49-.522.48s-.43-.088-.571-.437c-.487-1.206-1.09-2.366-1.657-3.526-.049-.1-.162-.169-.243-.254-.063.088-.176.169-.18.257,0,.529-.219,1.22.039,1.552.487.635-.628,1.411.307,1.887l-.624.786c-.092-.423-.836-.042-.8-.705C151.021,14.409,150.978,13.348,150.978,12.29Z" transform="translate(-97.729 -5.749)"></path><path id="Path_714" data-name="Path 714" class="cls-1" d="M130.905,11.843c0-.705.039-1.411,0-2.116-.063-1,.631-1.291,1.329-1.735.786-.5,1.439-.1,2.014.2.321.173.487.86.511,1.326.067,1.291.042,2.585,0,3.879a2.334,2.334,0,0,1-1.58,2.116c-.61.169-1.058-.3-1.555-.49s-.843-.42-.758-1.079A16.222,16.222,0,0,0,130.905,11.843Zm1.058-.243A13.508,13.508,0,0,0,132,13.715c.046.286.483.515.741.769.331-.374.9-.705.942-1.118a30.068,30.068,0,0,0,.032-3.879c-.018-.5-.578-.659-1.118-.42-.353.159-.705.208-.649.772A13.248,13.248,0,0,1,131.963,11.6Z" transform="translate(-84.709 -5.019)"></path><path id="Path_715" data-name="Path 715" class="cls-1" d="M93.084,16.135a2.132,2.132,0,0,1-2.253-2.091c0-.127.169-.353.25-.353a1.82,1.82,0,0,1,.762.169c0,.589.5.793.818,1.058a1.058,1.058,0,0,0,.913,0c.2-.092.3-.444.353-.705.021-.092-.173-.264-.3-.353-.529-.423-1.012-1.058-1.612-1.2-.864-.222-.984-.913-1.178-1.467a1.541,1.541,0,0,1,.705-1.957c.705-.388,1.428-.91,2.3-.173.5.42,1.033,1.358.808,1.95a.475.475,0,0,1-.42.169c-.236-.219-.582-.49-.589-.748,0-.564-.219-.659-.705-.663a.984.984,0,0,0-1.058.666,1.253,1.253,0,0,0,.455,1.382c.2.088.455.025.67.088a2.914,2.914,0,0,1,1.982,2.257,1.511,1.511,0,0,1-.79,1.548,3.784,3.784,0,0,1-1.118.416Z" transform="translate(-58.73 -5.63)"></path><path id="Path_716" data-name="Path 716" class="cls-1" d="M175.795,10.586a1.059,1.059,0,0,1,0,.353c-.056.138-.155.331-.265.353a.6.6,0,0,1-.437-.176c-.148-.155-.353-.377-.328-.554.039-.557-.183-.677-.705-.677A.961.961,0,0,0,173,10.54a1.271,1.271,0,0,0,.448,1.386c.194.092.483,0,.659.1a6.168,6.168,0,0,1,1.5,1.058c.86.977.684,1.975-.391,2.892a2.263,2.263,0,0,1-2.754-.441,3.42,3.42,0,0,1-.5-.85c-.18-.434.2-.652.462-.829s.5-.106.589.314c.053.247.353.437.5.67a.705.705,0,0,0,.9.331,1.266,1.266,0,0,0,.638-.839,1.411,1.411,0,0,0-.589-.882,3,3,0,0,0-1.287-.705c-.9-.12-.935-.892-1.21-1.439s.134-1.132.37-1.583a2.149,2.149,0,0,1,3.107-.4C175.9,9.676,175.795,10.134,175.795,10.586Z" transform="translate(-111.261 -5.73)"></path><path id="Path_717" data-name="Path 717" class="cls-1" d="M110.853,12.208a12.1,12.1,0,0,1,0-1.763c.092-.589-.374-1.262.257-1.763,1.09.229,2.356-.55,3.276.568a1.682,1.682,0,0,1,.317.741,4.86,4.86,0,0,1,.028.885c0,1.534-.575,2.211-2.193,2.37-.571.056-.674.243-.635.73a7.463,7.463,0,0,1,0,1.411c0,.138-.264.317-.43.353-.254.042-.61.116-.607-.353C110.853,14.317,110.853,13.262,110.853,12.208Zm1.058-1.238V11.5c0,.744.053.776.776.705.9-.071,1.033-.395,1-1.936-.018-.853-.61-.5-.98-.518C111.911,9.725,111.911,9.757,111.911,10.97Z" transform="translate(-71.71 -5.585)"></path><path id="Path_718" data-name="Path 718" class="cls-1" d="M70.98,13.279c0-.878-.025-1.763,0-2.634a.8.8,0,0,1,.864-.839h2.662c.469,0,.4.353.353.61a.617.617,0,0,1-.353.43,8.646,8.646,0,0,1-1.058.025c-.451.025-1.22-.049-1.294.138a4.656,4.656,0,0,0-.1,1.71c0,.088.219.233.353.25.286.042.652-.088.857.046s.353.532.54.811c-.2.071-.409.233-.589.2a1.076,1.076,0,0,0-1.164.564.6.6,0,0,0,.451.86,10.192,10.192,0,0,1,1.576.028,1.763,1.763,0,0,1,.779.571c.049.049-.092.423-.148.423-1.167.032-2.338.039-3.505.018-.074,0-.2-.261-.2-.4C70.98,15.162,70.98,14.213,70.98,13.279Z" transform="translate(-45.942 -6.346)"></path><path id="Path_719" data-name="Path 719" class="cls-1" d="M243,13.1v-.176c.018-.987.039-1.978.056-2.966,1.157-.042,2.313-.1,3.466-.1.12,0,.31.272.353.437.046.257.109.61-.353.6-.353,0-.705-.018-1.058,0-.451.028-1.22-.032-1.291.155a3.946,3.946,0,0,0-.063,1.717c0,.1.458.2.705.229.353.039.688-.067.681.5,0,.487-.2.536-.61.592a1.372,1.372,0,0,0-.8.536c-.236.3.078.832.458.843a10.326,10.326,0,0,1,1.411.021,2.5,2.5,0,0,1,.864.448.31.31,0,0,1,.06.31c-.078.12-.222.275-.353.275-1.058.021-2.116.028-3.174,0-.123,0-.353-.275-.353-.427Z" transform="translate(-157.308 -6.383)"></path><path id="Path_720" data-name="Path 720" class="cls-1" d="M225,12.992V10.171c0-.416.212-.444.543-.451s.533.071.529.469q-.021,2.19,0,4.38c0,.79,0,.793.875.8.409,0,.822-.028,1.227,0,.219.025.575-.236.652.226-.462.078-.046.85-.681.829-.935-.032-1.869,0-2.8-.028-.116,0-.31-.293-.317-.455C225,14.984,225,13.99,225,12.992Z" transform="translate(-145.655 -6.292)"></path><path id="Path_721" data-name="Path 721" class="cls-1" d="M6.676,4.232,5.16,4.062c.123-.515.236-1.033.381-1.545a1.717,1.717,0,0,1,.268-.43C6.246,1.446,6.123.55,6.757,0c.705.55.483,1.555,1.086,2.179a2.862,2.862,0,0,1,.384,1.058c.222.681.053.913-.674.927H6.68Z" transform="translate(-3.34)"></path><path id="Path_722" data-name="Path 722" class="cls-1" d="M22.381,6.035c-.564-.483-1.27-.155-1.975-.018-.081,0-.353-.377-.321-.42.779-1.023.772-2.359,1.411-3.435.092-.152.293-.236.444-.353a1.442,1.442,0,0,1,.247.353,21.818,21.818,0,0,0,1.058,3.054C23.467,5.784,23.178,6.07,22.381,6.035Z" transform="translate(-13.001 -1.172)"></path><path id="Path_723" data-name="Path 723" class="cls-1" d="M30.5,19.042c-.293,0-.585.021-.871,0A4.344,4.344,0,0,1,29,18.865c.081-.2.109-.5.254-.582.829-.437.1-1.478.793-1.964.081-.06-.042-.353.021-.5.145-.353.353-.67.518-1.005a1.83,1.83,0,0,1,.568,1,9.9,9.9,0,0,0,.783,2.116c.434.994.391,1.1-.568,1.121C31.081,19.045,30.788,19.042,30.5,19.042Z" transform="translate(-18.773 -9.587)"></path><path id="Path_724" data-name="Path 724" class="cls-1" d="M3.738,19.206c-1.784-.056-1.791-.06-1.21-1.7.268-.762.557-1.516.86-2.26.053-.127.236-.194.353-.289.046.1.1.194.134.293.12.3.254.6.353.9.138.469.215.959.377,1.411s.423.963.638,1.442Z" transform="translate(-1.414 -9.684)"></path><path id="Path_725" data-name="Path 725" class="cls-1" d="M16.194,22.139l-.984-.123c.166-.437.324-.882.5-1.315.2-.5.194-1.1.705-1.46.127-.092.092-.416.13-.631s.081-.434.123-.649c.194.173.557.353.554.522,0,1.03.868,1.763.839,2.821-.021.8.18.811-.476.822C17.252,22.142,16.9,22.139,16.194,22.139Z" transform="translate(-9.846 -11.627)"></path><path id="Path_726" data-name="Path 726" class="cls-1" d="M193.058,15.7v2.282c0,.409-.2.458-.536.458s-.522-.056-.522-.462q.021-2.37,0-4.74c0-.409.2-.458.536-.458s.543.056.536.462C193.058,14.06,193.058,14.882,193.058,15.7Z" transform="translate(-124.292 -8.273)"></path><path id="Path_727" data-name="Path 727" class="cls-1" d="M193.392,8.571a11.731,11.731,0,0,1-1.058.871c-.039.028-.324-.159-.324-.243a1.823,1.823,0,0,1,.162-.776.554.554,0,0,1,.458-.243,3.011,3.011,0,0,1,.762.391Z" transform="translate(-124.299 -5.295)"></path></g></svg> 